<svg xmlns="http://www.w3.org/2000/svg" viewBox="0 0 1024 1024" role="img" aria-label="BlueCDN logo">
  <rect width="1024" height="1024" fill="#0052D9"/>
  <path fill="#FFFFFF" d="M 898.000 512.000 L 897.902 587.744 L 897.606 617.338 L 897.114 639.719 L 896.424 658.383 L 895.536 674.669 L 894.450 689.257 L 893.165 702.547 L 891.680 714.797 L 889.994 726.185 L 888.106 736.840 L 886.014 746.856 L 883.718 756.309 L 881.215 765.256 L 878.504 773.743 L 875.581 781.809 L 872.446 789.485 L 869.094 796.797 L 865.524 803.766 L 861.731 810.411 L 857.712 816.750 L 853.462 822.794 L 848.976 828.556 L 844.250 834.047 L 839.276 839.276 L 834.047 844.250 L 828.556 848.976 L 822.794 853.462 L 816.750 857.712 L 810.411 861.731 L 803.766 865.524 L 796.797 869.094 L 789.485 872.446 L 781.809 875.581 L 773.743 878.504 L 765.256 881.215 L 756.309 883.718 L 746.856 886.014 L 736.840 888.106 L 726.185 889.994 L 714.797 891.680 L 702.547 893.165 L 689.257 894.450 L 674.669 895.536 L 658.383 896.424 L 639.719 897.114 L 617.338 897.606 L 587.744 897.902 L 512.000 898.000 L 436.256 897.902 L 406.662 897.606 L 384.281 897.114 L 365.617 896.424 L 349.331 895.536 L 334.743 894.450 L 321.453 893.165 L 309.203 891.680 L 297.815 889.994 L 287.160 888.106 L 277.144 886.014 L 267.691 883.718 L 258.744 881.215 L 250.257 878.504 L 242.191 875.581 L 234.515 872.446 L 227.203 869.094 L 220.234 865.524 L 213.589 861.731 L 207.250 857.712 L 201.206 853.462 L 195.444 848.976 L 189.953 844.250 L 184.724 839.276 L 179.750 834.047 L 175.024 828.556 L 170.538 822.794 L 166.288 816.750 L 162.269 810.411 L 158.476 803.766 L 154.906 796.797 L 151.554 789.485 L 148.419 781.809 L 145.496 773.743 L 142.785 765.256 L 140.282 756.309 L 137.986 746.856 L 135.894 736.840 L 134.006 726.185 L 132.320 714.797 L 130.835 702.547 L 129.550 689.257 L 128.464 674.669 L 127.576 658.383 L 126.886 639.719 L 126.394 617.338 L 126.098 587.744 L 126.000 512.000 L 126.098 436.256 L 126.394 406.662 L 126.886 384.281 L 127.576 365.617 L 128.464 349.331 L 129.550 334.743 L 130.835 321.453 L 132.320 309.203 L 134.006 297.815 L 135.894 287.160 L 137.986 277.144 L 140.282 267.691 L 142.785 258.744 L 145.496 250.257 L 148.419 242.191 L 151.554 234.515 L 154.906 227.203 L 158.476 220.234 L 162.269 213.589 L 166.288 207.250 L 170.538 201.206 L 175.024 195.444 L 179.750 189.953 L 184.724 184.724 L 189.953 179.750 L 195.444 175.024 L 201.206 170.538 L 207.250 166.288 L 213.589 162.269 L 220.234 158.476 L 227.203 154.906 L 234.515 151.554 L 242.191 148.419 L 250.257 145.496 L 258.744 142.785 L 267.691 140.282 L 277.144 137.986 L 287.160 135.894 L 297.815 134.006 L 309.203 132.320 L 321.453 130.835 L 334.743 129.550 L 349.331 128.464 L 365.617 127.576 L 384.281 126.886 L 406.662 126.394 L 436.256 126.098 L 512.000 126.000 L 587.744 126.098 L 617.338 126.394 L 639.719 126.886 L 658.383 127.576 L 674.669 128.464 L 689.257 129.550 L 702.547 130.835 L 714.797 132.320 L 726.185 134.006 L 736.840 135.894 L 746.856 137.986 L 756.309 140.282 L 765.256 142.785 L 773.743 145.496 L 781.809 148.419 L 789.485 151.554 L 796.797 154.906 L 803.766 158.476 L 810.411 162.269 L 816.750 166.288 L 822.794 170.538 L 828.556 175.024 L 834.047 179.750 L 839.276 184.724 L 844.250 189.953 L 848.976 195.444 L 853.462 201.206 L 857.712 207.250 L 861.731 213.589 L 865.524 220.234 L 869.094 227.203 L 872.446 234.515 L 875.581 242.191 L 878.504 250.257 L 881.215 258.744 L 883.718 267.691 L 886.014 277.144 L 888.106 287.160 L 889.994 297.815 L 891.680 309.203 L 893.165 321.453 L 894.450 334.743 L 895.536 349.331 L 896.424 365.617 L 897.114 384.281 L 897.606 406.662 L 897.902 436.256 Z"/>
  <g transform="translate(230.4 230.4) scale(0.55)" fill="#0052D9">
    <path d="M887.488 750.912c-26.176 0-50.304 7.744-71.04 20.48l-126.976-126.976C714.752 606.528 729.664 561.024 729.664 512c0-47.04-14.08-90.496-37.504-127.424l129.216-129.216c19.648 11.008 41.984 17.728 66.112 17.728C962.88 273.088 1024 211.968 1024 136.512 1024 61.12 962.88 0 887.488 0c-75.456 0-136.512 61.12-136.512 136.512 0 26.432 7.872 50.88 20.8 71.808l-124.48 124.544C605.248 296.064 550.912 273.088 490.688 273.088c-49.024 0-94.528 14.848-132.416 40.192L252.608 207.616c12.736-20.736 20.48-44.928 20.48-71.04C273.088 61.12 211.968 0 136.512 0 61.12 0 0 61.12 0 136.512c0 75.456 61.12 136.512 136.512 136.512 24.384 0 46.976-6.976 66.816-18.176l104.704 104.704C273.408 401.088 251.776 453.76 251.776 512c0 60.224 22.976 114.56 59.712 156.544l-103.232 103.232c-20.864-12.992-45.312-20.8-71.744-20.8C61.12 750.912 0 812.032 0 887.488 0 962.88 61.12 1024 136.512 1024c75.456 0 136.512-61.12 136.512-136.512 0-24.128-6.784-46.4-17.728-66.176l107.904-107.904c36.928 23.488 80.448 37.568 127.488 37.568 58.24 0 110.912-21.632 152.384-56.32l126.016 126.016c-11.2 19.776-18.176 42.368-18.176 66.816 0 75.456 61.12 136.512 136.512 136.512C962.88 1024 1024 962.88 1024 887.488 1024 812.032 962.88 750.912 887.488 750.912z"/>
  </g>
</svg>
