<svg xmlns="http://www.w3.org/2000/svg" viewBox="0 0 1024 1024" role="img" aria-label="BlueCDN logo">
  <path fill="#0052D9" d="M 1024.000 512.000 L 1023.869 612.469 L 1023.478 651.723 L 1022.825 681.409 L 1021.909 706.166 L 1020.732 727.769 L 1019.291 747.119 L 1017.587 764.746 L 1015.617 780.995 L 1013.381 796.100 L 1010.876 810.233 L 1008.102 823.519 L 1005.056 836.058 L 1001.736 847.925 L 998.139 859.183 L 994.263 869.882 L 990.104 880.063 L 985.659 889.761 L 980.923 899.005 L 975.892 907.820 L 970.561 916.227 L 964.924 924.245 L 958.974 931.888 L 952.704 939.171 L 946.106 946.106 L 939.171 952.704 L 931.888 958.974 L 924.245 964.924 L 916.227 970.561 L 907.820 975.892 L 899.005 980.923 L 889.761 985.659 L 880.063 990.104 L 869.882 994.263 L 859.183 998.139 L 847.925 1001.736 L 836.058 1005.056 L 823.519 1008.102 L 810.233 1010.876 L 796.100 1013.381 L 780.995 1015.617 L 764.746 1017.587 L 747.119 1019.291 L 727.769 1020.732 L 706.166 1021.909 L 681.409 1022.825 L 651.723 1023.478 L 612.469 1023.869 L 512.000 1024.000 L 411.531 1023.869 L 372.277 1023.478 L 342.591 1022.825 L 317.834 1021.909 L 296.231 1020.732 L 276.881 1019.291 L 259.254 1017.587 L 243.005 1015.617 L 227.900 1013.381 L 213.767 1010.876 L 200.481 1008.102 L 187.942 1005.056 L 176.075 1001.736 L 164.817 998.139 L 154.118 994.263 L 143.937 990.104 L 134.239 985.659 L 124.995 980.923 L 116.180 975.892 L 107.773 970.561 L 99.755 964.924 L 92.112 958.974 L 84.829 952.704 L 77.894 946.106 L 71.296 939.171 L 65.026 931.888 L 59.076 924.245 L 53.439 916.227 L 48.108 907.820 L 43.077 899.005 L 38.341 889.761 L 33.896 880.063 L 29.737 869.882 L 25.861 859.183 L 22.264 847.925 L 18.944 836.058 L 15.898 823.519 L 13.124 810.233 L 10.619 796.100 L 8.383 780.995 L 6.413 764.746 L 4.709 747.119 L 3.268 727.769 L 2.091 706.166 L 1.175 681.409 L 0.522 651.723 L 0.131 612.469 L 0.000 512.000 L 0.131 411.531 L 0.522 372.277 L 1.175 342.591 L 2.091 317.834 L 3.268 296.231 L 4.709 276.881 L 6.413 259.254 L 8.383 243.005 L 10.619 227.900 L 13.124 213.767 L 15.898 200.481 L 18.944 187.942 L 22.264 176.075 L 25.861 164.817 L 29.737 154.118 L 33.896 143.937 L 38.341 134.239 L 43.077 124.995 L 48.108 116.180 L 53.439 107.773 L 59.076 99.755 L 65.026 92.112 L 71.296 84.829 L 77.894 77.894 L 84.829 71.296 L 92.112 65.026 L 99.755 59.076 L 107.773 53.439 L 116.180 48.108 L 124.995 43.077 L 134.239 38.341 L 143.937 33.896 L 154.118 29.737 L 164.817 25.861 L 176.075 22.264 L 187.942 18.944 L 200.481 15.898 L 213.767 13.124 L 227.900 10.619 L 243.005 8.383 L 259.254 6.413 L 276.881 4.709 L 296.231 3.268 L 317.834 2.091 L 342.591 1.175 L 372.277 0.522 L 411.531 0.131 L 512.000 0.000 L 612.469 0.131 L 651.723 0.522 L 681.409 1.175 L 706.166 2.091 L 727.769 3.268 L 747.119 4.709 L 764.746 6.413 L 780.995 8.383 L 796.100 10.619 L 810.233 13.124 L 823.519 15.898 L 836.058 18.944 L 847.925 22.264 L 859.183 25.861 L 869.882 29.737 L 880.063 33.896 L 889.761 38.341 L 899.005 43.077 L 907.820 48.108 L 916.227 53.439 L 924.245 59.076 L 931.888 65.026 L 939.171 71.296 L 946.106 77.894 L 952.704 84.829 L 958.974 92.112 L 964.924 99.755 L 970.561 107.773 L 975.892 116.180 L 980.923 124.995 L 985.659 134.239 L 990.104 143.937 L 994.263 154.118 L 998.139 164.817 L 1001.736 176.075 L 1005.056 187.942 L 1008.102 200.481 L 1010.876 213.767 L 1013.381 227.900 L 1015.617 243.005 L 1017.587 259.254 L 1019.291 276.881 L 1020.732 296.231 L 1021.909 317.834 L 1022.825 342.591 L 1023.478 372.277 L 1023.869 411.531 Z"/>
  <g transform="translate(151.552 151.552) scale(0.704)" fill="#FFFFFF">
    <path d="M887.488 750.912c-26.176 0-50.304 7.744-71.04 20.48l-126.976-126.976C714.752 606.528 729.664 561.024 729.664 512c0-47.04-14.08-90.496-37.504-127.424l129.216-129.216c19.648 11.008 41.984 17.728 66.112 17.728C962.88 273.088 1024 211.968 1024 136.512 1024 61.12 962.88 0 887.488 0c-75.456 0-136.512 61.12-136.512 136.512 0 26.432 7.872 50.88 20.8 71.808l-124.48 124.544C605.248 296.064 550.912 273.088 490.688 273.088c-49.024 0-94.528 14.848-132.416 40.192L252.608 207.616c12.736-20.736 20.48-44.928 20.48-71.04C273.088 61.12 211.968 0 136.512 0 61.12 0 0 61.12 0 136.512c0 75.456 61.12 136.512 136.512 136.512 24.384 0 46.976-6.976 66.816-18.176l104.704 104.704C273.408 401.088 251.776 453.76 251.776 512c0 60.224 22.976 114.56 59.712 156.544l-103.232 103.232c-20.864-12.992-45.312-20.8-71.744-20.8C61.12 750.912 0 812.032 0 887.488 0 962.88 61.12 1024 136.512 1024c75.456 0 136.512-61.12 136.512-136.512 0-24.128-6.784-46.4-17.728-66.176l107.904-107.904c36.928 23.488 80.448 37.568 127.488 37.568 58.24 0 110.912-21.632 152.384-56.32l126.016 126.016c-11.2 19.776-18.176 42.368-18.176 66.816 0 75.456 61.12 136.512 136.512 136.512C962.88 1024 1024 962.88 1024 887.488 1024 812.032 962.88 750.912 887.488 750.912z"/>
  </g>
</svg>
