<svg xmlns="http://www.w3.org/2000/svg" viewBox="0 0 1024 1024" role="img" aria-label="BlueCDN logo">
  <path fill="#0052D9" transform="matrix(2 0 0 2 400.016 399.454)" d="M258.626-146.231c-48.304-48.118-117.759-53.496-202.634-53.496c-84.982,0-154.542,5.44-202.826,53.688c-48.277,48.228-53.174,117.676-53.174,202.561c0,84.899,4.897,154.368,53.194,202.613c48.281,48.255,117.833,53.139,202.806,53.139c84.974,0,154.514-4.884,202.795-53.139c48.294-48.254,53.205-117.714,53.205-202.613C311.992-28.472,307.028-97.995,258.626-146.231L258.626-146.231z"/>
  <g transform="translate(151.552 151.552) scale(0.704)" fill="#FFFFFF">
    <path d="M887.488 750.912c-26.176 0-50.304 7.744-71.04 20.48l-126.976-126.976C714.752 606.528 729.664 561.024 729.664 512c0-47.04-14.08-90.496-37.504-127.424l129.216-129.216c19.648 11.008 41.984 17.728 66.112 17.728C962.88 273.088 1024 211.968 1024 136.512 1024 61.12 962.88 0 887.488 0c-75.456 0-136.512 61.12-136.512 136.512 0 26.432 7.872 50.88 20.8 71.808l-124.48 124.544C605.248 296.064 550.912 273.088 490.688 273.088c-49.024 0-94.528 14.848-132.416 40.192L252.608 207.616c12.736-20.736 20.48-44.928 20.48-71.04C273.088 61.12 211.968 0 136.512 0 61.12 0 0 61.12 0 136.512c0 75.456 61.12 136.512 136.512 136.512 24.384 0 46.976-6.976 66.816-18.176l104.704 104.704C273.408 401.088 251.776 453.76 251.776 512c0 60.224 22.976 114.56 59.712 156.544l-103.232 103.232c-20.864-12.992-45.312-20.8-71.744-20.8C61.12 750.912 0 812.032 0 887.488 0 962.88 61.12 1024 136.512 1024c75.456 0 136.512-61.12 136.512-136.512 0-24.128-6.784-46.4-17.728-66.176l107.904-107.904c36.928 23.488 80.448 37.568 127.488 37.568 58.24 0 110.912-21.632 152.384-56.32l126.016 126.016c-11.2 19.776-18.176 42.368-18.176 66.816 0 75.456 61.12 136.512 136.512 136.512C962.88 1024 1024 962.88 1024 887.488 1024 812.032 962.88 750.912 887.488 750.912z"/>
  </g>
</svg>
